<svg xmlns="http://www.w3.org/2000/svg" version="1.1" xmlns:xlink="http://www.w3.org/1999/xlink" xmlns:svgjs="http://svgjs.com/svgjs" width="3900" height="2700" preserveAspectRatio="none" viewBox="0 0 3900 2700"><g mask="url(&quot;#SvgjsMask1253&quot;)" fill="none"><rect width="3900" height="2700" x="0" y="0" fill="rgba(23, 135, 183, 1)"></rect><path d="M145.66 -86.64L299.82 2.36L299.82 180.36L145.66 269.36L-8.5 180.36L-8.5 2.36zM145.66 981.36L299.82 1070.36L299.82 1248.36L145.66 1337.36L-8.5 1248.36L-8.5 1070.36zM145.66 2049.36L299.82 2138.36L299.82 2316.36L145.66 2405.36L-8.5 2316.36L-8.5 2138.36zM299.82 2316.36L453.97 2405.36L453.97 2583.36L299.82 2672.36L145.66 2583.36L145.66 2405.36zM453.97 -86.64L608.13 2.36L608.13 180.36L453.97 269.36L299.82 180.36L299.82 2.36zM453.97 447.36L608.13 536.36L608.13 714.36L453.97 803.36L299.82 714.36L299.82 536.36zM608.13 1248.36L762.29 1337.36L762.29 1515.36L608.13 1604.36L453.97 1515.36L453.97 1337.36zM608.13 2316.36L762.29 2405.36L762.29 2583.36L608.13 2672.36L453.97 2583.36L453.97 2405.36zM453.97 2583.36L608.13 2672.36L608.13 2850.36L453.97 2939.36L299.82 2850.36L299.82 2672.36zM762.29 447.36L916.44 536.36L916.44 714.36L762.29 803.36L608.13 714.36L608.13 536.36zM762.29 1515.36L916.44 1604.36L916.44 1782.36L762.29 1871.36L608.13 1782.36L608.13 1604.36zM916.44 2316.36L1070.6 2405.36L1070.6 2583.36L916.44 2672.36L762.29 2583.36L762.29 2405.36zM762.29 2583.36L916.44 2672.36L916.44 2850.36L762.29 2939.36L608.13 2850.36L608.13 2672.36zM1224.76 180.36L1378.92 269.36L1378.92 447.36L1224.76 536.36L1070.6 447.36L1070.6 269.36zM1070.6 447.36L1224.76 536.36L1224.76 714.36L1070.6 803.36L916.44 714.36L916.44 536.36zM1070.6 1515.36L1224.76 1604.36L1224.76 1782.36L1070.6 1871.36L916.44 1782.36L916.44 1604.36zM1224.76 1782.36L1378.92 1871.36L1378.92 2049.36L1224.76 2138.36L1070.6 2049.36L1070.6 1871.36zM1070.6 2049.36L1224.76 2138.36L1224.76 2316.36L1070.6 2405.36L916.44 2316.36L916.44 2138.36zM1533.07 180.36L1687.23 269.36L1687.23 447.36L1533.07 536.36L1378.92 447.36L1378.92 269.36zM1378.92 447.36L1533.07 536.36L1533.07 714.36L1378.92 803.36L1224.76 714.36L1224.76 536.36zM1378.92 1515.36L1533.07 1604.36L1533.07 1782.36L1378.92 1871.36L1224.76 1782.36L1224.76 1604.36zM1533.07 2316.36L1687.23 2405.36L1687.23 2583.36L1533.07 2672.36L1378.92 2583.36L1378.92 2405.36zM1841.39 714.36L1995.54 803.36L1995.54 981.36L1841.39 1070.36L1687.23 981.36L1687.23 803.36zM1687.23 981.36L1841.39 1070.36L1841.39 1248.36L1687.23 1337.36L1533.07 1248.36L1533.07 1070.36zM1687.23 2583.36L1841.39 2672.36L1841.39 2850.36L1687.23 2939.36L1533.07 2850.36L1533.07 2672.36zM2149.7 180.36L2303.86 269.36L2303.86 447.36L2149.7 536.36L1995.54 447.36L1995.54 269.36zM1995.54 447.36L2149.7 536.36L2149.7 714.36L1995.54 803.36L1841.39 714.36L1841.39 536.36zM2149.7 714.36L2303.86 803.36L2303.86 981.36L2149.7 1070.36L1995.54 981.36L1995.54 803.36zM1995.54 981.36L2149.7 1070.36L2149.7 1248.36L1995.54 1337.36L1841.39 1248.36L1841.39 1070.36zM2458.01 180.36L2612.17 269.36L2612.17 447.36L2458.01 536.36L2303.86 447.36L2303.86 269.36zM2458.01 714.36L2612.17 803.36L2612.17 981.36L2458.01 1070.36L2303.86 981.36L2303.86 803.36zM2458.01 1782.36L2612.17 1871.36L2612.17 2049.36L2458.01 2138.36L2303.86 2049.36L2303.86 1871.36zM2612.17 447.36L2766.33 536.36L2766.33 714.36L2612.17 803.36L2458.01 714.36L2458.01 536.36zM2612.17 1515.36L2766.33 1604.36L2766.33 1782.36L2612.17 1871.36L2458.01 1782.36L2458.01 1604.36zM2612.17 2049.36L2766.33 2138.36L2766.33 2316.36L2612.17 2405.36L2458.01 2316.36L2458.01 2138.36zM2766.33 2316.36L2920.48 2405.36L2920.48 2583.36L2766.33 2672.36L2612.17 2583.36L2612.17 2405.36zM2612.17 2583.36L2766.33 2672.36L2766.33 2850.36L2612.17 2939.36L2458.01 2850.36L2458.01 2672.36zM2920.48 447.36L3074.64 536.36L3074.64 714.36L2920.48 803.36L2766.33 714.36L2766.33 536.36zM3074.64 2316.36L3228.8 2405.36L3228.8 2583.36L3074.64 2672.36L2920.48 2583.36L2920.48 2405.36zM2920.48 2583.36L3074.64 2672.36L3074.64 2850.36L2920.48 2939.36L2766.33 2850.36L2766.33 2672.36zM3382.95 180.36L3537.11 269.36L3537.11 447.36L3382.95 536.36L3228.8 447.36L3228.8 269.36zM3382.95 714.36L3537.11 803.36L3537.11 981.36L3382.95 1070.36L3228.8 981.36L3228.8 803.36zM3228.8 981.36L3382.95 1070.36L3382.95 1248.36L3228.8 1337.36L3074.64 1248.36L3074.64 1070.36zM3382.95 1782.36L3537.11 1871.36L3537.11 2049.36L3382.95 2138.36L3228.8 2049.36L3228.8 1871.36zM3537.11 -86.64L3691.27 2.36L3691.27 180.36L3537.11 269.36L3382.95 180.36L3382.95 2.36zM3691.27 714.36L3845.43 803.36L3845.43 981.36L3691.27 1070.36L3537.11 981.36L3537.11 803.36zM3537.11 981.36L3691.27 1070.36L3691.27 1248.36L3537.11 1337.36L3382.95 1248.36L3382.95 1070.36zM3691.27 1782.36L3845.43 1871.36L3845.43 2049.36L3691.27 2138.36L3537.11 2049.36L3537.11 1871.36zM3845.43 1515.36L3999.58 1604.36L3999.58 1782.36L3845.43 1871.36L3691.27 1782.36L3691.27 1604.36zM3999.58 1782.36L4153.74 1871.36L4153.74 2049.36L3999.58 2138.36L3845.43 2049.36L3845.43 1871.36z" stroke="rgba(17, 159, 220, 1)" stroke-width="2"></path></g><defs><mask id="SvgjsMask1253"><rect width="3900" height="2700" fill="#ffffff"></rect></mask></defs></svg>